# xmcd
#
# Track frame offsets:
#	150
#	14549
#	32055
#	45605
#	60715
#	78753
#	97657
#	111904
#	129556
#	146690
#	147380
#	148094
#	149057
#	149842
#	150564
#	151372
#	152112
#
# Disc length: 2035 seconds
#
# Revision: 1
# Processed by: cddbd v1.5.2PL0 Copyright (c) Steve Scherf et al.
# Submitted via: audiograbber 1.83.01
#
DISCID=f907f111
DTITLE=Various Artist - CDX Volume 601 (August 4, 2014)
DYEAR=2014
DGENRE=Country
TTITLE0=T. Graham Brown (with Vince Gill) - He'll Take Care Of You
TTITLE1=Clinton Gregory (featuring Ira Dean) - You Can't Hide High
TTITLE2=Reckless Johnny Wales - Blood In The Mud
TTITLE3=Sammy Hakim - Fearless
TTITLE4=Rhett Walker Band - Here's To The Ones
TTITLE5=Teea Goans - Nobody Wins 
TTITLE6=Grayson Rogers - Party Rocker 
TTITLE7=North 40 - Whole Lot Of Livin'
TTITLE8=Mike Aiken - Your Memory Wins
TTITLE9=Johnny Orr Band - Liner - Home Town Country
TTITLE10=Johnny Orr Band - Liner - Kickin' Country
TTITLE11=Johnny Orr Band - Liner - My New Single
TTITLE12=Johnny Orr Band - Liner - Super Country
TTITLE13=Johnny Orr Band - Liner - The Best in Country
TTITLE14=Johnny Orr Band - Liner - The Country You Love
TTITLE15=Johnny Orr Band - Liner - Today's Best Country
TTITLE16=Johnny Orr Band - Liner - Today's Hot Country
EXTD=
EXTT0=
EXTT1=
EXTT2=
EXTT3=
EXTT4=
EXTT5=
EXTT6=
EXTT7=
EXTT8=
EXTT9=
EXTT10=
EXTT11=
EXTT12=
EXTT13=
EXTT14=
EXTT15=
EXTT16=
PLAYORDER=
